<svg xmlns="http://www.w3.org/2000/svg" width="727" height="811" viewBox="0 0 727 811">
  <g id="Group_107" data-name="Group 107" transform="translate(178)">
    <ellipse id="Ellipse_2" data-name="Ellipse 2" cx="115.5" cy="114" rx="115.5" ry="114" transform="translate(318 469)" fill="#fc0" opacity="0.41"/>
    <ellipse id="Ellipse_4" data-name="Ellipse 4" cx="115.5" cy="114" rx="115.5" ry="114" transform="translate(245 583)" fill="#464343" opacity="0.8"/>
    <circle id="Ellipse_5" data-name="Ellipse 5" cx="10" cy="10" r="10" transform="matrix(0.819, -0.574, 0.574, 0.819, 8.073, 393.386)" fill="#fc0" opacity="0.8"/>
    <circle id="Ellipse_8" data-name="Ellipse 8" cx="10" cy="10" r="10" transform="matrix(0.819, -0.574, 0.574, 0.819, 45.073, 285.386)" fill="#fc0" opacity="0.8"/>
    <circle id="Ellipse_9" data-name="Ellipse 9" cx="10" cy="10" r="10" transform="matrix(0.819, -0.574, 0.574, 0.819, 17.218, 128.386)" fill="#fc0" opacity="0.8"/>
    <circle id="Ellipse_11" data-name="Ellipse 11" cx="10" cy="10" r="10" transform="matrix(0.819, -0.574, 0.574, 0.819, 290.146, 407.314)" fill="#fc0" opacity="0.8"/>
    <circle id="Ellipse_12" data-name="Ellipse 12" cx="10" cy="10" r="10" transform="matrix(0.819, -0.574, 0.574, 0.819, 346.073, 303.617)" fill="#fc0" opacity="0.8"/>
    <circle id="Ellipse_13" data-name="Ellipse 13" cx="10" cy="10" r="10" transform="matrix(0.819, -0.574, 0.574, 0.819, 180, 528.617)" fill="#fc0" opacity="0.8"/>
    <circle id="Ellipse_10" data-name="Ellipse 10" cx="10" cy="10" r="10" transform="matrix(0.819, -0.574, 0.574, 0.819, 231.073, 194.386)" fill="#fc0" opacity="0.8"/>
    <ellipse id="Ellipse_7" data-name="Ellipse 7" cx="115.5" cy="114" rx="115.5" ry="114" transform="translate(-178 491)" fill="#fc0" opacity="0.41"/>
    <ellipse id="Ellipse_6" data-name="Ellipse 6" cx="115.5" cy="114" rx="115.5" ry="114" transform="translate(-115 552)" fill="#464343"/>
    <rect id="Rectangle_8" data-name="Rectangle 8" width="360" height="640" fill="none" opacity="0.6"/>
  </g>
</svg>
